<svg width="25" height="24" viewBox="0 0 25 24" fill="none" xmlns="http://www.w3.org/2000/svg">
<path opacity="0.2" d="M19.25 13.125V16.5C19.25 18.75 18.5 20.25 18.5 20.25H5.75001L3.00126 15.5625C2.75654 15.1321 2.692 14.6223 2.82173 14.1445C2.95146 13.6667 3.26492 13.2596 3.69371 13.012C4.1225 12.7644 4.6318 12.6965 5.11048 12.8231C5.58916 12.9496 5.99835 13.2604 6.24876 13.6875L8.00001 16.5V6.375C8.00001 5.87772 8.19756 5.40081 8.54919 5.04917C8.90082 4.69754 9.37773 4.5 9.87501 4.5C10.3723 4.5 10.8492 4.69754 11.2008 5.04917C11.5525 5.40081 11.75 5.87772 11.75 6.375V11.625C11.75 11.1277 11.9476 10.6508 12.2992 10.2992C12.6508 9.94754 13.1277 9.75 13.625 9.75C14.1223 9.75 14.5992 9.94754 14.9508 10.2992C15.3025 10.6508 15.5 11.1277 15.5 11.625V13.125C15.5 12.6277 15.6976 12.1508 16.0492 11.7992C16.4008 11.4475 16.8777 11.25 17.375 11.25C17.8723 11.25 18.3492 11.4475 18.7008 11.7992C19.0525 12.1508 19.25 12.6277 19.25 13.125Z" fill="#CCCC00"/>
<path d="M20 13.1251V16.5001C20 18.8991 19.204 20.5173 19.1703 20.5857C19.108 20.7102 19.0123 20.8149 18.8939 20.888C18.7755 20.9612 18.6391 21 18.5 21.0001C18.3837 21.0002 18.269 20.9729 18.1653 20.9204C17.9874 20.8315 17.8521 20.6756 17.7892 20.4869C17.7262 20.2983 17.7408 20.0924 17.8296 19.9145C17.8353 19.9032 18.5009 18.526 18.5009 16.5001V13.1251C18.5009 12.8267 18.3824 12.5406 18.1714 12.3296C17.9604 12.1186 17.6743 12.0001 17.3759 12.0001C17.0775 12.0001 16.7914 12.1186 16.5804 12.3296C16.3694 12.5406 16.2509 12.8267 16.2509 13.1251V13.5001C16.2509 13.699 16.1719 13.8898 16.0312 14.0304C15.8906 14.1711 15.6998 14.2501 15.5009 14.2501C15.302 14.2501 15.1112 14.1711 14.9706 14.0304C14.8299 13.8898 14.7509 13.699 14.7509 13.5001V11.6251C14.7509 11.3267 14.6324 11.0406 14.4214 10.8296C14.2104 10.6186 13.9243 10.5001 13.6259 10.5001C13.3275 10.5001 13.0414 10.6186 12.8304 10.8296C12.6194 11.0406 12.5009 11.3267 12.5009 11.6251V12.7501C12.5009 12.949 12.4219 13.1398 12.2812 13.2804C12.1406 13.4211 11.9498 13.5001 11.7509 13.5001C11.552 13.5001 11.3612 13.4211 11.2206 13.2804C11.0799 13.1398 11.0009 12.949 11.0009 12.7501V6.37509C11.0009 6.07672 10.8824 5.79057 10.6714 5.57959C10.4604 5.36861 10.1743 5.25009 9.87589 5.25009C9.57752 5.25009 9.29138 5.36861 9.0804 5.57959C8.86942 5.79057 8.75089 6.07672 8.75089 6.37509V16.5001C8.75089 16.663 8.69781 16.8215 8.5997 16.9516C8.5016 17.0817 8.36379 17.1763 8.20713 17.2211C8.05047 17.2659 7.88347 17.2585 7.73141 17.2C7.57935 17.1414 7.45049 17.0349 7.36433 16.8966L5.61308 14.0841L5.59996 14.0626C5.52609 13.9345 5.42772 13.8223 5.31048 13.7323C5.19323 13.6423 5.05941 13.5762 4.91664 13.5379C4.77387 13.4996 4.62495 13.4898 4.47839 13.509C4.33183 13.5283 4.19049 13.5762 4.06245 13.6501C3.93442 13.724 3.82218 13.8223 3.73216 13.9396C3.64213 14.0568 3.57608 14.1906 3.53778 14.3334C3.49947 14.4762 3.48967 14.6251 3.50891 14.7717C3.52816 14.9182 3.57609 15.0595 3.64995 15.1876L6.39589 19.8751C6.45368 19.9603 6.49331 20.0565 6.5123 20.1577C6.5313 20.2589 6.52925 20.3629 6.50628 20.4633C6.48332 20.5637 6.43994 20.6582 6.37883 20.7411C6.31773 20.824 6.24021 20.8934 6.15112 20.945C6.06202 20.9966 5.96325 21.0293 5.86096 21.0411C5.75867 21.0529 5.65505 21.0435 5.55655 21.0135C5.45806 20.9835 5.3668 20.9335 5.28846 20.8667C5.21012 20.7998 5.14638 20.7176 5.1012 20.6251L2.35245 15.9376C2.00224 15.3358 1.90546 14.6194 2.08338 13.9462C2.26131 13.2731 2.69937 12.6981 3.3012 12.3479C3.90304 11.9977 4.61934 11.9009 5.29254 12.0788C5.96574 12.2567 6.54068 12.6948 6.89089 13.2966L7.24995 13.8751V6.37509C7.24995 5.67889 7.52652 5.01121 8.0188 4.51893C8.51108 4.02665 9.17876 3.75009 9.87495 3.75009C10.5711 3.75009 11.2388 4.02665 11.7311 4.51893C12.2234 5.01121 12.5 5.67889 12.5 6.37509V9.25321C12.8375 9.09302 13.2053 9.00673 13.5789 9.0001C13.9524 8.99347 14.3231 9.06666 14.6661 9.21478C15.0091 9.36289 15.3165 9.58252 15.5679 9.85898C15.8192 10.1354 16.0086 10.4624 16.1234 10.8179C16.5232 10.601 16.9725 10.4918 17.4273 10.5008C17.882 10.5099 18.3266 10.637 18.7175 10.8696C19.1083 11.1022 19.432 11.4324 19.6569 11.8278C19.8817 12.2232 19.9999 12.6702 20 13.1251ZM23.5306 4.71946L20.5306 1.71946C20.3899 1.57885 20.199 1.49991 20.0001 1.5C19.8012 1.50009 19.6104 1.5792 19.4698 1.71993C19.3292 1.86066 19.2502 2.05148 19.2503 2.25042C19.2504 2.44935 19.3295 2.6401 19.4703 2.78071L21.1887 4.50009H16.25C16.051 4.50009 15.8603 4.5791 15.7196 4.71976C15.579 4.86041 15.5 5.05117 15.5 5.25009C15.5 5.449 15.579 5.63976 15.7196 5.78042C15.8603 5.92107 16.051 6.00009 16.25 6.00009H21.1896L19.4693 7.71946C19.3286 7.86007 19.2495 8.05082 19.2494 8.24975C19.2493 8.44869 19.3283 8.63951 19.4689 8.78024C19.6095 8.92097 19.8002 9.00008 19.9992 9.00017C20.1981 9.00026 20.3889 8.92132 20.5296 8.78071L23.5296 5.78071C23.5994 5.71112 23.6548 5.62845 23.6927 5.53743C23.7305 5.44642 23.75 5.34884 23.7501 5.25028C23.7502 5.15172 23.7308 5.05411 23.6932 4.96302C23.6555 4.87194 23.6003 4.78918 23.5306 4.71946Z" fill="#CCCC00"/>
</svg>
