<svg width="24" height="24" viewBox="0 0 24 24" xmlns="http://www.w3.org/2000/svg">
<g id="LightningSlash">
<path id="Vector" opacity="0.2" d="M9 22.5L10.5 15L4.5 12.75L15 1.5L13.5 9L19.5 11.25L9 22.5Z" fill="#035B71"/>
<path id="Vector_2" d="M5.05494 3.24562C4.98908 3.17137 4.90914 3.11094 4.81974 3.06782C4.73035 3.0247 4.63329 2.99975 4.53419 2.99442C4.43508 2.98909 4.3359 3.00348 4.2424 3.03676C4.1489 3.07004 4.06293 3.12155 3.98949 3.1883C3.91604 3.25505 3.85657 3.33571 3.81452 3.42561C3.77248 3.51552 3.74869 3.61287 3.74455 3.71203C3.74041 3.81119 3.75599 3.91019 3.79039 4.00329C3.82479 4.09638 3.87732 4.18172 3.94494 4.25437L7.62463 8.30249L3.95151 12.24C3.86623 12.3299 3.80453 12.4394 3.77194 12.559C3.73935 12.6785 3.73687 12.8042 3.76473 12.9249C3.79258 13.0456 3.84991 13.1576 3.93158 13.2507C4.01325 13.3439 4.11672 13.4153 4.23276 13.4587L9.63557 15.4847L8.26494 22.3528C8.23382 22.5125 8.2555 22.6781 8.3267 22.8244C8.3979 22.9707 8.51477 23.0899 8.65966 23.164C8.80455 23.2381 8.96961 23.263 9.12992 23.2351C9.29024 23.2071 9.43711 23.1278 9.54838 23.0091L15.3478 16.7953L18.9449 20.7516C19.0108 20.8258 19.0908 20.8862 19.1801 20.9294C19.2695 20.9725 19.3666 20.9974 19.4657 21.0028C19.5648 21.0081 19.664 20.9937 19.7575 20.9604C19.851 20.9271 19.937 20.8756 20.0104 20.8089C20.0839 20.7421 20.1433 20.6615 20.1854 20.5716C20.2274 20.4817 20.2512 20.3843 20.2553 20.2851C20.2595 20.186 20.2439 20.087 20.2095 19.9939C20.1751 19.9008 20.1226 19.8154 20.0549 19.7428L5.05494 3.24562ZM10.2534 20.0625L11.2349 15.1519C11.2701 14.9777 11.2422 14.7967 11.1564 14.6412C11.0705 14.4856 10.9323 14.3656 10.7662 14.3025L5.81244 12.4416L8.63619 9.41624L14.3343 15.6844L10.2534 20.0625ZM10.1868 6.65624C10.1148 6.58904 10.0567 6.50829 10.0158 6.41863C9.97502 6.32896 9.95225 6.23213 9.94886 6.13366C9.94546 6.0352 9.9615 5.93702 9.99606 5.84476C10.0306 5.75249 10.083 5.66794 10.1503 5.59593L14.4515 0.987181C14.5628 0.868433 14.7097 0.789097 14.87 0.761147C15.0303 0.733196 15.1953 0.758146 15.3402 0.832232C15.4851 0.906318 15.602 1.02552 15.6732 1.17185C15.7444 1.31818 15.7661 1.4837 15.7349 1.64343L14.3606 8.52187L19.7634 10.5478C19.8786 10.5915 19.9812 10.6629 20.0622 10.7557C20.1433 10.8485 20.2002 10.9598 20.228 11.0798C20.2558 11.1998 20.2536 11.3248 20.2216 11.4438C20.1897 11.5627 20.1289 11.672 20.0446 11.7619L17.954 14.0016C17.8174 14.1429 17.6307 14.225 17.4342 14.2301C17.2377 14.2352 17.047 14.1629 16.9032 14.0289C16.7595 13.8948 16.6741 13.7096 16.6654 13.5132C16.6568 13.3168 16.7257 13.1249 16.8571 12.9787L18.1874 11.5584L13.2374 9.70218C13.0714 9.63906 12.9331 9.51904 12.8472 9.36349C12.7614 9.20794 12.7336 9.02696 12.7687 8.85281L13.7503 3.94218L11.2499 6.62062C11.1826 6.69302 11.1017 6.75139 11.0117 6.79239C10.9218 6.83339 10.8246 6.8562 10.7258 6.85951C10.627 6.86282 10.5285 6.84657 10.436 6.81168C10.3435 6.7768 10.2588 6.72397 10.1868 6.65624Z" fill="#035B71"/>
</g>
</svg>
