<svg width="24" height="25" viewBox="0 0 24 25" fill="none" xmlns="http://www.w3.org/2000/svg">
<path opacity="0.2" d="M18.75 6.5V15.5C18.75 16.2956 18.4339 17.0587 17.8713 17.6213C17.3087 18.1839 16.5456 18.5 15.75 18.5H8.25C7.45435 18.5 6.69129 18.1839 6.12868 17.6213C5.56607 17.0587 5.25 16.2956 5.25 15.5V6.5H18.75Z" fill="#FF0000"/>
<path d="M21 5.75H16.5V2C16.5 1.80109 16.421 1.61032 16.2803 1.46967C16.1397 1.32902 15.9489 1.25 15.75 1.25C15.5511 1.25 15.3603 1.32902 15.2197 1.46967C15.079 1.61032 15 1.80109 15 2V5.75H9V2C9 1.80109 8.92098 1.61032 8.78033 1.46967C8.63968 1.32902 8.44891 1.25 8.25 1.25C8.05109 1.25 7.86032 1.32902 7.71967 1.46967C7.57902 1.61032 7.5 1.80109 7.5 2V5.75H3.05156C2.46375 5.75 2.25 6.19812 2.25 6.5C2.25 6.69891 2.32902 6.88968 2.46967 7.03033C2.61032 7.17098 2.80109 7.25 3 7.25H4.5V15.5C4.5 16.4946 4.89509 17.4484 5.59835 18.1516C6.30161 18.8549 7.25544 19.25 8.25 19.25H11.25V23C11.25 23.1989 11.329 23.3897 11.4697 23.5303C11.6103 23.671 11.8011 23.75 12 23.75C12.1989 23.75 12.3897 23.671 12.5303 23.5303C12.671 23.3897 12.75 23.1989 12.75 23V19.25H15.75C16.7446 19.25 17.6984 18.8549 18.4016 18.1516C19.1049 17.4484 19.5 16.4946 19.5 15.5V7.25H21C21.1989 7.25 21.3897 7.17098 21.5303 7.03033C21.671 6.88968 21.75 6.69891 21.75 6.5C21.75 6.30109 21.671 6.11032 21.5303 5.96967C21.3897 5.82902 21.1989 5.75 21 5.75ZM18 15.5C18 16.0967 17.7629 16.669 17.341 17.091C16.919 17.5129 16.3467 17.75 15.75 17.75H8.25C7.65326 17.75 7.08097 17.5129 6.65901 17.091C6.23705 16.669 6 16.0967 6 15.5V7.25H18V15.5ZM9.88312 12.9275C9.81411 12.8278 9.7703 12.7129 9.75544 12.5925C9.74058 12.4722 9.75512 12.35 9.79781 12.2366L10.9228 9.23656C10.9927 9.05008 11.1338 8.89899 11.315 8.81654C11.4963 8.73408 11.7029 8.72701 11.8894 8.79688C12.0759 8.86674 12.2269 9.00783 12.3094 9.18909C12.3919 9.37036 12.3989 9.57696 12.3291 9.76344L11.5791 11.75H13.5C13.6212 11.75 13.7406 11.7794 13.8479 11.8356C13.9553 11.8918 14.0474 11.9732 14.1165 12.0729C14.1855 12.1725 14.2293 12.2873 14.2443 12.4076C14.2592 12.5279 14.2448 12.65 14.2022 12.7634L13.0772 15.7634C13.0073 15.9499 12.8662 16.101 12.685 16.1835C12.5037 16.2659 12.2971 16.273 12.1106 16.2031C11.9241 16.1333 11.7731 15.9922 11.6906 15.8109C11.6081 15.6296 11.6011 15.423 11.6709 15.2366L12.4209 13.25H10.5C10.3788 13.2501 10.2593 13.2208 10.1519 13.1646C10.0444 13.1085 9.95223 13.0271 9.88312 12.9275Z" fill="#FF0000"/>
</svg>
