<svg width="24" height="25" viewBox="0 0 24 25" fill="none" xmlns="http://www.w3.org/2000/svg">
<path opacity="0.2" d="M7.12508 12.1253L12.3751 17.3753L9.65633 20.0941C9.23438 20.516 8.66211 20.753 8.06539 20.753C7.46868 20.753 6.89641 20.516 6.47446 20.0941L4.40633 18.0231C3.98527 17.6013 3.74878 17.0296 3.74878 16.4336C3.74878 15.8376 3.98527 15.2659 4.40633 14.8441L7.12508 12.1253ZM19.5938 6.97751L17.5229 4.90658C17.1011 4.48551 16.5294 4.24902 15.9334 4.24902C15.3373 4.24902 14.7657 4.48551 14.3438 4.90658L11.6251 7.62533L16.8751 12.8753L19.5938 10.1566C20.0149 9.73474 20.2514 9.16307 20.2514 8.56704C20.2514 7.97102 20.0149 7.39935 19.5938 6.97751Z" fill="#CCCC00"/>
<path d="M14.0306 13.469C13.9609 13.3993 13.8782 13.3439 13.7871 13.3062C13.6961 13.2684 13.5985 13.249 13.4999 13.249C13.4014 13.249 13.3038 13.2684 13.2127 13.3062C13.1217 13.3439 13.039 13.3993 12.9693 13.469L11.2499 15.1893L9.31024 13.2496L11.0306 11.5302C11.1713 11.3895 11.2503 11.1986 11.2503 10.9996C11.2503 10.8006 11.1713 10.6097 11.0306 10.469C10.8898 10.3283 10.699 10.2492 10.4999 10.2492C10.3009 10.2492 10.11 10.3283 9.9693 10.469L8.24993 12.1893L6.53055 10.469C6.38982 10.3283 6.19895 10.2492 5.99993 10.2492C5.80091 10.2492 5.61003 10.3283 5.4693 10.469C5.32857 10.6097 5.24951 10.8006 5.24951 10.9996C5.24951 11.1986 5.32857 11.3895 5.4693 11.5302L6.06462 12.1246L3.87837 14.3099C3.59972 14.5885 3.37868 14.9193 3.22787 15.2833C3.07706 15.6473 2.99944 16.0375 2.99944 16.4315C2.99944 16.8255 3.07706 17.2157 3.22787 17.5797C3.37868 17.9437 3.59972 18.2745 3.87837 18.5531L4.38274 19.0565L1.7193 21.719C1.64962 21.7887 1.59435 21.8714 1.55663 21.9624C1.51892 22.0535 1.49951 22.1511 1.49951 22.2496C1.49951 22.3482 1.51892 22.4457 1.55663 22.5368C1.59435 22.6278 1.64962 22.7106 1.7193 22.7802C1.86003 22.921 2.05091 23 2.24993 23C2.34847 23 2.44606 22.9806 2.5371 22.9429C2.62815 22.9052 2.71087 22.8499 2.78055 22.7802L5.44305 20.1168L5.94649 20.6212C6.22508 20.8998 6.55582 21.1209 6.91984 21.2717C7.28387 21.4225 7.67403 21.5001 8.06805 21.5001C8.46208 21.5001 8.85224 21.4225 9.21626 21.2717C9.58028 21.1209 9.91103 20.8998 10.1896 20.6212L12.3749 18.4349L12.9693 19.0302C13.039 19.0999 13.1217 19.1552 13.2128 19.1929C13.3038 19.2306 13.4014 19.25 13.4999 19.25C13.5985 19.25 13.6961 19.2306 13.7871 19.1929C13.8781 19.1552 13.9609 19.0999 14.0306 19.0302C14.1002 18.9606 14.1555 18.8778 14.1932 18.7868C14.2309 18.6957 14.2503 18.5982 14.2503 18.4996C14.2503 18.4011 14.2309 18.3035 14.1932 18.2124C14.1555 18.1214 14.1002 18.0387 14.0306 17.969L12.3102 16.2496L14.0306 14.5302C14.1003 14.4606 14.1556 14.3779 14.1933 14.2868C14.2311 14.1958 14.2505 14.0982 14.2505 13.9996C14.2505 13.9011 14.2311 13.8035 14.1933 13.7124C14.1556 13.6214 14.1003 13.5386 14.0306 13.469ZM9.12837 19.5627C8.84709 19.8438 8.46571 20.0017 8.06805 20.0017C7.6704 20.0017 7.28902 19.8438 7.00774 19.5627L4.93962 17.4918C4.65852 17.2105 4.50062 16.8291 4.50062 16.4315C4.50062 16.0338 4.65852 15.6525 4.93962 15.3712L7.12493 13.1849L11.3146 17.3746L9.12837 19.5627ZM22.2806 2.21899C22.2109 2.14926 22.1282 2.09394 22.0371 2.05619C21.9461 2.01845 21.8485 1.99902 21.7499 1.99902C21.6514 1.99902 21.5538 2.01845 21.4627 2.05619C21.3717 2.09394 21.289 2.14926 21.2193 2.21899L18.5568 4.88243L18.0534 4.37805C17.4901 3.81644 16.7272 3.50107 15.9318 3.50107C15.1364 3.50107 14.3735 3.81644 13.8102 4.37805L11.6249 6.5643L11.0306 5.96899C10.8898 5.82826 10.699 5.7492 10.4999 5.7492C10.3009 5.7492 10.11 5.82826 9.9693 5.96899C9.82857 6.10972 9.74951 6.30059 9.74951 6.49961C9.74951 6.69864 9.82857 6.88951 9.9693 7.03024L17.4693 14.5302C17.539 14.5999 17.6217 14.6552 17.7128 14.6929C17.8038 14.7306 17.9014 14.75 17.9999 14.75C18.0985 14.75 18.1961 14.7306 18.2871 14.6929C18.3781 14.6552 18.4609 14.5999 18.5306 14.5302C18.6002 14.4606 18.6555 14.3778 18.6932 14.2868C18.7309 14.1957 18.7503 14.0982 18.7503 13.9996C18.7503 13.9011 18.7309 13.8035 18.6932 13.7124C18.6555 13.6214 18.6002 13.5387 18.5306 13.469L17.9352 12.8746L20.1215 10.6893C20.4001 10.4107 20.6212 10.08 20.772 9.71595C20.9228 9.35193 21.0004 8.96176 21.0004 8.56774C21.0004 8.17372 20.9228 7.78355 20.772 7.41953C20.6212 7.05551 20.4001 6.72476 20.1215 6.44618L19.6171 5.94274L22.2806 3.28024C22.3503 3.21058 22.4056 3.12787 22.4433 3.03682C22.4811 2.94577 22.5005 2.84818 22.5005 2.74961C22.5005 2.65105 22.4811 2.55346 22.4433 2.46241C22.4056 2.37136 22.3503 2.28864 22.2806 2.21899ZM19.0602 9.62524L16.8749 11.8143L12.6852 7.62461L14.8715 5.4393C15.1528 5.15821 15.5342 5.00031 15.9318 5.00031C16.3295 5.00031 16.7108 5.15821 16.9921 5.4393L19.0602 7.5018C19.2003 7.64118 19.3114 7.80685 19.3872 7.98929C19.463 8.17173 19.5021 8.36736 19.5021 8.56493C19.5021 8.7625 19.463 8.95812 19.3872 9.14056C19.3114 9.32301 19.2003 9.48867 19.0602 9.62805V9.62524Z" fill="#CCCC00"/>
</svg>
