<svg width="25" height="24" viewBox="0 0 25 24" fill="none" xmlns="http://www.w3.org/2000/svg">
<path opacity="0.2" d="M21.5 6V12C21.5 13.5913 20.8679 15.1174 19.7426 16.2426C18.6174 17.3679 17.0913 18 15.5 18H3.5V12C3.5 10.4087 4.13214 8.88258 5.25736 7.75736C6.38258 6.63214 7.9087 6 9.5 6H21.5Z" fill="#22C55E"/>
<path d="M2.74998 12.0004C2.75196 10.2108 3.46376 8.49508 4.7292 7.22964C5.99464 5.9642 7.71038 5.2524 9.49998 5.25042H19.6897L18.7194 4.28104C18.5786 4.14031 18.4996 3.94944 18.4996 3.75042C18.4996 3.55139 18.5786 3.36052 18.7194 3.21979C18.8601 3.07906 19.051 3 19.25 3C19.449 3 19.6399 3.07906 19.7806 3.21979L22.0306 5.46979C22.1003 5.53945 22.1557 5.62216 22.1934 5.71321C22.2311 5.80426 22.2506 5.90186 22.2506 6.00042C22.2506 6.09898 22.2311 6.19657 22.1934 6.28762C22.1557 6.37867 22.1003 6.46139 22.0306 6.53104L19.7806 8.78104C19.6399 8.92177 19.449 9.00083 19.25 9.00083C19.051 9.00083 18.8601 8.92177 18.7194 8.78104C18.5786 8.64031 18.4996 8.44944 18.4996 8.25042C18.4996 8.05139 18.5786 7.86052 18.7194 7.71979L19.6897 6.75042H9.49998C8.10805 6.75191 6.77356 7.30551 5.78931 8.28975C4.80507 9.27399 4.25147 10.6085 4.24998 12.0004C4.24998 12.1993 4.17096 12.3901 4.03031 12.5307C3.88966 12.6714 3.69889 12.7504 3.49998 12.7504C3.30107 12.7504 3.1103 12.6714 2.96965 12.5307C2.829 12.3901 2.74998 12.1993 2.74998 12.0004ZM21.5 11.2504C21.3011 11.2504 21.1103 11.3294 20.9696 11.4701C20.829 11.6107 20.75 11.8015 20.75 12.0004C20.7485 13.3923 20.1949 14.7268 19.2106 15.7111C18.2264 16.6953 16.8919 17.2489 15.5 17.2504H5.31029L6.2806 16.281C6.35029 16.2114 6.40556 16.1286 6.44327 16.0376C6.48099 15.9465 6.5004 15.849 6.5004 15.7504C6.5004 15.6519 6.48099 15.5543 6.44327 15.4632C6.40556 15.3722 6.35029 15.2895 6.2806 15.2198C6.21092 15.1501 6.1282 15.0948 6.03715 15.0571C5.94611 15.0194 5.84853 15 5.74998 15C5.65143 15 5.55385 15.0194 5.46281 15.0571C5.37176 15.0948 5.28904 15.1501 5.21935 15.2198L2.96935 17.4698C2.89962 17.5394 2.8443 17.6222 2.80656 17.7132C2.76882 17.8043 2.74939 17.9019 2.74939 18.0004C2.74939 18.099 2.76882 18.1966 2.80656 18.2876C2.8443 18.3787 2.89962 18.4614 2.96935 18.531L5.21935 20.781C5.28904 20.8507 5.37176 20.906 5.46281 20.9437C5.55385 20.9814 5.65143 21.0008 5.74998 21.0008C5.84853 21.0008 5.94611 20.9814 6.03715 20.9437C6.1282 20.906 6.21092 20.8507 6.2806 20.781C6.35029 20.7114 6.40556 20.6286 6.44327 20.5376C6.48099 20.4465 6.5004 20.349 6.5004 20.2504C6.5004 20.1519 6.48099 20.0543 6.44327 19.9632C6.40556 19.8722 6.35029 19.7895 6.2806 19.7198L5.31029 18.7504H15.5C17.2896 18.7484 19.0053 18.0366 20.2708 16.7712C21.5362 15.5058 22.248 13.79 22.25 12.0004C22.25 11.8015 22.171 11.6107 22.0303 11.4701C21.8897 11.3294 21.6989 11.2504 21.5 11.2504Z" fill="#22C55E"/>
</svg>
