<svg width="20" height="20" viewBox="0 0 20 20" fill="none" xmlns="http://www.w3.org/2000/svg">
<path d="M10 0.25C8.07164 0.25 6.18657 0.821828 4.58319 1.89317C2.97982 2.96451 1.73013 4.48726 0.992179 6.26884C0.254225 8.05042 0.061142 10.0108 0.437348 11.9021C0.813554 13.7934 1.74215 15.5307 3.10571 16.8943C4.46928 18.2579 6.20656 19.1865 8.09787 19.5627C9.98919 19.9389 11.9496 19.7458 13.7312 19.0078C15.5127 18.2699 17.0355 17.0202 18.1068 15.4168C19.1782 13.8134 19.75 11.9284 19.75 10C19.7473 7.41498 18.7192 4.93661 16.8913 3.10872C15.0634 1.28084 12.585 0.25273 10 0.25ZM10 18.25C8.36831 18.25 6.77326 17.7661 5.41655 16.8596C4.05984 15.9531 3.00242 14.6646 2.378 13.1571C1.75358 11.6496 1.5902 9.99085 1.90853 8.3905C2.22685 6.79016 3.01259 5.32015 4.16637 4.16637C5.32016 3.01259 6.79017 2.22685 8.39051 1.90852C9.99085 1.59019 11.6497 1.75357 13.1571 2.37799C14.6646 3.00242 15.9531 4.05984 16.8596 5.41655C17.7661 6.77325 18.25 8.3683 18.25 10C18.2475 12.1873 17.3775 14.2843 15.8309 15.8309C14.2843 17.3775 12.1873 18.2475 10 18.25ZM5.5 8.125C5.5 7.9025 5.56598 7.68499 5.6896 7.49998C5.81322 7.31498 5.98892 7.17078 6.19449 7.08564C6.40005 7.00049 6.62625 6.97821 6.84448 7.02162C7.06271 7.06502 7.26317 7.17217 7.4205 7.3295C7.57783 7.48684 7.68498 7.68729 7.72839 7.90552C7.7718 8.12375 7.74952 8.34995 7.66437 8.55552C7.57922 8.76109 7.43503 8.93679 7.25002 9.0604C7.06502 9.18402 6.84751 9.25 6.625 9.25C6.32664 9.25 6.04049 9.13147 5.82951 8.9205C5.61853 8.70952 5.5 8.42337 5.5 8.125ZM14.5 8.125C14.5 8.3475 14.434 8.56501 14.3104 8.75002C14.1868 8.93502 14.0111 9.07922 13.8055 9.16436C13.6 9.24951 13.3738 9.27179 13.1555 9.22838C12.9373 9.18498 12.7368 9.07783 12.5795 8.9205C12.4222 8.76316 12.315 8.56271 12.2716 8.34448C12.2282 8.12625 12.2505 7.90005 12.3356 7.69448C12.4208 7.48891 12.565 7.31321 12.75 7.1896C12.935 7.06598 13.1525 7 13.375 7C13.6734 7 13.9595 7.11853 14.1705 7.3295C14.3815 7.54048 14.5 7.82663 14.5 8.125ZM14.3988 14.125C14.453 14.2104 14.4895 14.3058 14.5059 14.4056C14.5223 14.5054 14.5183 14.6075 14.4943 14.7058C14.4702 14.804 14.4265 14.8964 14.3658 14.9773C14.3052 15.0583 14.2287 15.1261 14.1412 15.1767C14.0536 15.2273 13.9567 15.2597 13.8563 15.2719C13.7558 15.2841 13.654 15.2758 13.5569 15.2477C13.4597 15.2195 13.3693 15.1719 13.291 15.1079C13.2127 15.0438 13.1481 14.9646 13.1013 14.875C12.4009 13.6647 11.3003 13 10 13C8.69969 13 7.59907 13.6656 6.89875 14.875C6.85187 14.9646 6.78734 15.0438 6.70904 15.1079C6.63074 15.1719 6.5403 15.2195 6.44316 15.2477C6.34601 15.2758 6.24417 15.2841 6.14375 15.2719C6.04334 15.2597 5.94643 15.2273 5.85886 15.1767C5.77128 15.1261 5.69485 15.0583 5.63417 14.9773C5.57348 14.8964 5.52979 14.804 5.50573 14.7058C5.48166 14.6075 5.47772 14.5054 5.49413 14.4056C5.51055 14.3058 5.54699 14.2104 5.60125 14.125C6.56594 12.4572 8.16907 11.5 10 11.5C11.8309 11.5 13.4341 12.4563 14.3988 14.125Z" fill="#CC0000"/>
</svg>
