<svg width="24" height="24" viewBox="0 0 24 24" fill="none" xmlns="http://www.w3.org/2000/svg">
<path opacity="0.2" d="M15.75 13.5C15.75 14.2417 15.5301 14.9667 15.118 15.5834C14.706 16.2001 14.1203 16.6807 13.4351 16.9645C12.7498 17.2484 11.9958 17.3226 11.2684 17.1779C10.541 17.0333 9.8728 16.6761 9.34835 16.1517C8.8239 15.6272 8.46675 14.959 8.32206 14.2316C8.17736 13.5042 8.25162 12.7502 8.53545 12.0649C8.81928 11.3797 9.29993 10.794 9.91661 10.382C10.5333 9.96993 11.2583 9.75 12 9.75C12.9946 9.75 13.9484 10.1451 14.6517 10.8483C15.3549 11.5516 15.75 12.5054 15.75 13.5ZM6 5.25C5.40666 5.25 4.82664 5.42595 4.33329 5.75559C3.83994 6.08524 3.45543 6.55377 3.22836 7.10195C3.0013 7.65013 2.94189 8.25333 3.05765 8.83527C3.1734 9.41721 3.45912 9.95176 3.87868 10.3713C4.29824 10.7909 4.83279 11.0766 5.41473 11.1924C5.99667 11.3081 6.59987 11.2487 7.14805 11.0216C7.69623 10.7946 8.16477 10.4101 8.49441 9.91671C8.82405 9.42336 9 8.84334 9 8.25C9 7.45435 8.68393 6.69129 8.12132 6.12868C7.55871 5.56607 6.79565 5.25 6 5.25ZM18 5.25C17.4067 5.25 16.8266 5.42595 16.3333 5.75559C15.8399 6.08524 15.4554 6.55377 15.2284 7.10195C15.0013 7.65013 14.9419 8.25333 15.0576 8.83527C15.1734 9.41721 15.4591 9.95176 15.8787 10.3713C16.2982 10.7909 16.8328 11.0766 17.4147 11.1924C17.9967 11.3081 18.5999 11.2487 19.1481 11.0216C19.6962 10.7946 20.1648 10.4101 20.4944 9.91671C20.8241 9.42336 21 8.84334 21 8.25C21 7.45435 20.6839 6.69129 20.1213 6.12868C19.5587 5.56607 18.7957 5.25 18 5.25Z" fill="#007B8D"/>
<path d="M22.95 14.1002C22.8712 14.1593 22.7816 14.2023 22.6862 14.2267C22.5908 14.2511 22.4915 14.2566 22.394 14.2426C22.2965 14.2287 22.2027 14.1957 22.1179 14.1455C22.0332 14.0953 21.9591 14.029 21.9 13.9502C21.448 13.3425 20.8596 12.8495 20.1822 12.5108C19.5048 12.1721 18.7574 11.9972 18 12.0002C17.8011 12.0002 17.6104 11.9212 17.4697 11.7805C17.3291 11.6398 17.25 11.4491 17.25 11.2502C17.25 11.0513 17.3291 10.8605 17.4697 10.7198C17.6104 10.5792 17.8011 10.5002 18 10.5002C18.4209 10.5001 18.8332 10.3821 19.1903 10.1594C19.5474 9.93677 19.8349 9.61844 20.0201 9.24058C20.2054 8.86273 20.2809 8.4405 20.2382 8.02185C20.1955 7.60321 20.0363 7.20493 19.7786 6.87225C19.5209 6.53958 19.175 6.28584 18.7803 6.13987C18.3856 5.9939 17.9579 5.96154 17.5458 6.04646C17.1336 6.13139 16.7535 6.3302 16.4487 6.62031C16.1439 6.91043 15.9265 7.28021 15.8213 7.68767C15.7967 7.78308 15.7535 7.87271 15.6942 7.95144C15.635 8.03017 15.5608 8.09645 15.4759 8.14651C15.391 8.19656 15.2971 8.22941 15.1995 8.24318C15.102 8.25694 15.0026 8.25135 14.9072 8.22673C14.8118 8.20211 14.7222 8.15893 14.6435 8.09967C14.5647 8.04041 14.4984 7.96622 14.4484 7.88134C14.3983 7.79646 14.3655 7.70256 14.3517 7.60498C14.338 7.50741 14.3435 7.40808 14.3682 7.31267C14.5142 6.74765 14.7901 6.22451 15.1738 5.78487C15.5576 5.34523 16.0387 5.00124 16.5788 4.78025C17.119 4.55926 17.7032 4.46738 18.2851 4.51191C18.867 4.55645 19.4304 4.73618 19.9306 5.0368C20.4308 5.33742 20.8539 5.75063 21.1663 6.24356C21.4787 6.73648 21.6718 7.29552 21.7301 7.87618C21.7884 8.45684 21.7104 9.0431 21.5023 9.58831C21.2942 10.1335 20.9617 10.6226 20.5313 11.0167C21.5511 11.4583 22.4377 12.159 23.1028 13.0492C23.1619 13.1282 23.2049 13.2181 23.2292 13.3137C23.2535 13.4093 23.2587 13.5088 23.2445 13.6064C23.2303 13.704 23.197 13.7979 23.1465 13.8826C23.0959 13.9673 23.0292 14.0413 22.95 14.1002ZM17.8988 19.8752C17.9511 19.9605 17.9859 20.0555 18.0009 20.1546C18.016 20.2536 18.011 20.3546 17.9864 20.4517C17.9618 20.5488 17.918 20.6399 17.8575 20.7198C17.7971 20.7997 17.7213 20.8666 17.6346 20.9167C17.5479 20.9668 17.452 20.999 17.3526 21.0115C17.2532 21.0239 17.1524 21.0163 17.056 20.9891C16.9596 20.962 16.8696 20.9158 16.7913 20.8532C16.7131 20.7907 16.6481 20.7132 16.6004 20.6252C16.1278 19.8254 15.455 19.1626 14.6482 18.7022C13.8414 18.2417 12.9285 17.9996 11.9996 17.9996C11.0706 17.9996 10.1577 18.2417 9.35095 18.7022C8.54415 19.1626 7.87131 19.8254 7.39879 20.6252C7.3519 20.7148 7.28737 20.794 7.20908 20.8581C7.13078 20.9221 7.04034 20.9696 6.94319 20.9978C6.84605 21.026 6.7442 21.0343 6.64379 21.0221C6.54338 21.0099 6.44647 20.9775 6.35889 20.9269C6.27132 20.8762 6.19489 20.8084 6.1342 20.7275C6.07352 20.6466 6.02983 20.5542 6.00576 20.456C5.9817 20.3577 5.97775 20.2556 5.99417 20.1558C6.01059 20.056 6.04702 19.9605 6.10129 19.8752C6.82841 18.6258 7.9371 17.6427 9.26441 17.0702C8.51753 16.4983 7.96863 15.7068 7.69485 14.8069C7.42108 13.907 7.4362 12.9438 7.73808 12.053C8.03997 11.1621 8.61346 10.3882 9.37792 9.84005C10.1424 9.29194 11.0594 8.99716 12 8.99716C12.9407 8.99716 13.8577 9.29194 14.6222 9.84005C15.3866 10.3882 15.9601 11.1621 16.262 12.053C16.5639 12.9438 16.579 13.907 16.3052 14.8069C16.0315 15.7068 15.4825 16.4983 14.7357 17.0702C16.063 17.6427 17.1717 18.6258 17.8988 19.8752ZM12 16.5002C12.5934 16.5002 13.1734 16.3242 13.6667 15.9946C14.1601 15.6649 14.5446 15.1964 14.7717 14.6482C14.9987 14.1 15.0582 13.4968 14.9424 12.9149C14.8266 12.333 14.5409 11.7984 14.1214 11.3788C13.7018 10.9593 13.1673 10.6736 12.5853 10.5578C12.0034 10.4421 11.4002 10.5015 10.852 10.7285C10.3038 10.9556 9.83528 11.3401 9.50563 11.8335C9.17599 12.3268 9.00004 12.9068 9.00004 13.5002C9.00004 14.2958 9.31611 15.0589 9.87872 15.6215C10.4413 16.1841 11.2044 16.5002 12 16.5002ZM6.75004 11.2502C6.75004 11.0513 6.67102 10.8605 6.53037 10.7198C6.38972 10.5792 6.19895 10.5002 6.00004 10.5002C5.57922 10.5001 5.16685 10.3821 4.80976 10.1594C4.45267 9.93677 4.16518 9.61844 3.97994 9.24058C3.79471 8.86273 3.71915 8.4405 3.76185 8.02185C3.80455 7.60321 3.9638 7.20493 4.22152 6.87225C4.47923 6.53958 4.82507 6.28584 5.21976 6.13987C5.61445 5.9939 6.04216 5.96154 6.45432 6.04646C6.86648 6.13139 7.24656 6.3302 7.55139 6.62031C7.85622 6.91043 8.07359 7.28021 8.17879 7.68767C8.22852 7.88036 8.35276 8.04541 8.52418 8.14651C8.6956 8.2476 8.90016 8.27646 9.09285 8.22673C9.28555 8.177 9.4506 8.05276 9.55169 7.88134C9.65279 7.70992 9.68164 7.50536 9.63192 7.31267C9.48589 6.74765 9.21002 6.22451 8.82624 5.78487C8.44246 5.34523 7.96137 5.00124 7.42125 4.78025C6.88112 4.55926 6.29688 4.46738 5.715 4.51191C5.13312 4.55645 4.56967 4.73618 4.06947 5.0368C3.56928 5.33742 3.14614 5.75063 2.83375 6.24356C2.52135 6.73648 2.32831 7.29552 2.26998 7.87618C2.21165 8.45684 2.28965 9.0431 2.49777 9.58831C2.70589 10.1335 3.03838 10.6226 3.46879 11.0167C2.44999 11.4587 1.56446 12.1594 0.90004 13.0492C0.780569 13.2084 0.729204 13.4084 0.757247 13.6054C0.785289 13.8024 0.890442 13.9802 1.04957 14.0997C1.2087 14.2192 1.40877 14.2705 1.60577 14.2425C1.80278 14.2145 1.98057 14.1093 2.10004 13.9502C2.55209 13.3425 3.14049 12.8495 3.81788 12.5108C4.49526 12.1721 5.24271 11.9972 6.00004 12.0002C6.19895 12.0002 6.38972 11.9212 6.53037 11.7805C6.67102 11.6398 6.75004 11.4491 6.75004 11.2502Z" fill="#007B8D"/>
</svg>
