<svg width="24" height="24" viewBox="0 0 24 24" fill="none" xmlns="http://www.w3.org/2000/svg">
<path opacity="0.2" d="M21.5316 12.5267L12.5316 21.5267C12.4624 21.596 12.3803 21.6509 12.2899 21.6884C12.1995 21.7259 12.1026 21.7452 12.0047 21.7452C11.9068 21.7452 11.8099 21.7259 11.7195 21.6884C11.6291 21.6509 11.547 21.596 11.4778 21.5267L2.47782 12.5267C2.40854 12.4575 2.35358 12.3754 2.31608 12.285C2.27858 12.1946 2.25928 12.0977 2.25928 11.9998C2.25928 11.9019 2.27858 11.805 2.31608 11.7146C2.35358 11.6242 2.40854 11.5421 2.47782 11.4729L11.4825 2.47294C11.5517 2.40366 11.6338 2.3487 11.7242 2.3112C11.8146 2.2737 11.9115 2.25439 12.0094 2.25439C12.1073 2.25439 12.2042 2.2737 12.2946 2.3112C12.385 2.3487 12.4671 2.40366 12.5363 2.47294L21.5363 11.4776C21.6741 11.6177 21.751 11.8066 21.7501 12.0031C21.7492 12.1997 21.6707 12.3879 21.5316 12.5267Z" fill="#CCCC00"/>
<path d="M12 6.7498C12.1989 6.7498 12.3897 6.82882 12.5304 6.96947C12.671 7.11012 12.75 7.30089 12.75 7.4998V12.7498C12.75 12.9487 12.671 13.1395 12.5304 13.2801C12.3897 13.4208 12.1989 13.4998 12 13.4998C11.8011 13.4998 11.6104 13.4208 11.4697 13.2801C11.3291 13.1395 11.25 12.9487 11.25 12.7498V7.4998C11.25 7.30089 11.3291 7.11012 11.4697 6.96947C11.6104 6.82882 11.8011 6.7498 12 6.7498ZM10.875 16.1248C10.875 16.3473 10.941 16.5648 11.0646 16.7498C11.1882 16.9348 11.364 17.079 11.5695 17.1642C11.7751 17.2493 12.0013 17.2716 12.2195 17.2282C12.4377 17.1848 12.6382 17.0776 12.7955 16.9203C12.9529 16.763 13.06 16.5625 13.1034 16.3443C13.1468 16.126 13.1245 15.8998 13.0394 15.6943C12.9543 15.4887 12.8101 15.313 12.6251 15.1894C12.44 15.0658 12.2225 14.9998 12 14.9998C11.7017 14.9998 11.4155 15.1183 11.2045 15.3293C10.9936 15.5403 10.875 15.8264 10.875 16.1248ZM22.5 11.9998C22.5006 12.1963 22.4622 12.3909 22.387 12.5724C22.3119 12.7539 22.2015 12.9187 22.0622 13.0573L13.0575 22.0629C12.7765 22.3423 12.3963 22.4991 12 22.4991C11.6038 22.4991 11.2236 22.3423 10.9425 22.0629L1.94254 13.0573C1.66316 12.7763 1.50635 12.3961 1.50635 11.9998C1.50635 11.6035 1.66316 11.2233 1.94254 10.9423L10.9472 1.93668C11.2283 1.6573 11.6084 1.50049 12.0047 1.50049C12.401 1.50049 12.7812 1.6573 13.0622 1.93668L22.0669 10.9423C22.2053 11.0813 22.3149 11.2463 22.3892 11.4277C22.4635 11.6093 22.5012 11.8037 22.5 11.9998ZM21 11.9998L12 2.9998L3.00004 11.9998L12 20.9998L21 11.9998Z" fill="#CCCC00"/>
</svg>
